Format : AVI
Format/Info : Audio Video Interleave
File size : 764 MiB
Duration : 1h 18mn
Overall bit rate : 1 359 Kbps
Writing library : VirtualDub build 32842/release

Video
ID : 0
Format : MPEG-4 Visual
Format profile : Advanced Simple@L5
Format settings, BVOP : 2
Format settings, QPel : No
Format settings, GMC : No warppoints
Format settings, Matrix : Default (H.263)
Muxing mode : Packed bitstream
Codec ID : XVID
Codec ID/Hint : XviD
Duration : 1h 18mn
Bit rate : 1 222 Kbps
Width : 624 pixels
Height : 332 pixels
Display aspect ratio : 1.880
Frame rate : 25.000 fps
Color space : YUV
Chroma subsampling : 4:2:0
Bit depth : 8 bits
Scan type : Progressive
Compression mode : Lossy
Bits/(Pixel*Frame) : 0.236
Stream size : 687 MiB (90%)
Writing library : XviD 64

Audio
ID : 1
Format : MPEG Audio
Format version : Version 1
Format profile : Layer 3
Mode : Joint stereo
Codec ID : 55
Codec ID/Hint : MP3
Duration : 1h 18mn
Bit rate mode : Constant
Bit rate : 128 Kbps
Channel(s) : 2 channels
Sampling rate : 44.1 KHz
Compression mode : Lossy
Stream size : 71.9 MiB (9%)
Alignment : Split accross interleaves
Interleave, duration : 40 ms (1.00 video frame)
Interleave, preload duration : 500 ms









 
http://www.imdb.com/title/tt1778304/



Your rating:
1 2 3 4 5 6 7 8 9 10 -/10 X
Ratings: 6.7/10 from 2,210 users Metascore: 59/100
Reviews: 95 user | 36 critic | 25 from Metacritic.com

In 1988, young sisters Katie and Kristi befriend an invisible entity who resides in their home.
Directors:
Henry Joost, Ariel Schulman
Writers:
Christopher B. Landon, Oren Peli (characters)
Stars:
Chloe Csengery, Jessica Tyler Brown and Christopher Nicholas Smith

















Source Used


RELiZLAB ..............Source files ....Thanks

Mistere ..................................................Thanks


Kept the file size down imo it dont benefit from making it bigger

Source is ok depends on how much you want to watch this ........Filtered as much as i can ..slightest denoise ......levels filter ,saturation and hue changed


Sample included so check it out before moaning even though you will


Enjoy





Greetz to IMAGiNE,Flawl3ss,BDK,Ez,Rx,CreWsaDe,TaRiQ786,ETRG,BHRG,iLLUMiNATi
